<svg xmlns="http://www.w3.org/2000/svg" width="80" height="80" fill="none" viewBox="0 0 80 80"><circle cx="40" cy="40" r="40" fill="#110F1C"/><mask id="mask0_476_3426" width="10" height="12" x="44" y="17" maskUnits="userSpaceOnUse" style="mask-type:alpha"><path fill="#fff" d="M44.043 17.2031V28.1245L53.5211 22.6719L44.043 17.2031Z"/></mask><g mask="url(#mask0_476_3426)"><rect width="51.649" height="50.877" x="14.269" y="14.656" fill="url(#paint0_linear_476_3426)"/></g><mask id="mask1_476_3426" width="10" height="12" x="53" y="22" maskUnits="userSpaceOnUse" style="mask-type:alpha"><path fill="#fff" d="M53.5215 22.668V33.5894L62.9996 28.1214L53.5215 22.668Z" opacity=".9"/></mask><g mask="url(#mask1_476_3426)"><rect width="51.649" height="50.877" x="14.27" y="14.656" fill="url(#paint1_linear_476_3426)"/></g><mask id="mask2_476_3426" width="10" height="12" x="44" y="28" maskUnits="userSpaceOnUse" style="mask-type:alpha"><path fill="#fff" d="M44.0425 28.125V39.0456L53.5206 33.593L44.0425 28.125Z" opacity=".8"/></mask><g mask="url(#mask2_476_3426)"><rect width="51.649" height="50.877" x="14.269" y="14.658" fill="url(#paint2_linear_476_3426)"/></g><mask id="mask3_476_3426" width="10" height="12" x="53" y="33" maskUnits="userSpaceOnUse" style="mask-type:alpha"><path fill="#fff" d="M53.5215 33.5879V44.5085L62.9996 39.0405L53.5215 33.5879Z" opacity=".8"/></mask><g mask="url(#mask3_476_3426)"><rect width="51.649" height="50.877" x="14.27" y="14.656" fill="url(#paint3_linear_476_3426)"/></g><mask id="mask4_476_3426" width="10" height="11" x="44" y="39" maskUnits="userSpaceOnUse" style="mask-type:alpha"><path fill="#fff" d="M44.0425 39.0469V49.9675L53.5206 44.5149L44.0425 39.0469Z" opacity=".8"/></mask><g mask="url(#mask4_476_3426)"><rect width="51.649" height="50.877" x="14.269" y="14.656" fill="url(#paint4_linear_476_3426)"/></g><mask id="mask5_476_3426" width="10" height="12" x="53" y="44" maskUnits="userSpaceOnUse" style="mask-type:alpha"><path fill="#fff" d="M53.5215 44.5078V55.4284L62.9996 49.9604L53.5215 44.5078Z"/></mask><g mask="url(#mask5_476_3426)"><rect width="51.649" height="50.877" x="14.27" y="14.654" fill="url(#paint5_linear_476_3426)"/></g><mask id="mask6_476_3426" width="11" height="12" x="19" y="27" maskUnits="userSpaceOnUse" style="mask-type:alpha"><path fill="#fff" d="M19.5444 27.7539V38.6745L29.0226 33.2065L19.5444 27.7539Z" opacity=".4"/></mask><g mask="url(#mask6_476_3426)"><rect width="51.649" height="50.877" x="14.27" y="14.656" fill="url(#paint6_linear_476_3426)"/></g><mask id="mask7_476_3426" width="10" height="12" x="31" y="31" maskUnits="userSpaceOnUse" style="mask-type:alpha"><path fill="#fff" d="M31.5059 31.8125V42.7331L40.9678 37.2805L31.5059 31.8125Z" opacity=".2"/></mask><g mask="url(#mask7_476_3426)"><rect width="51.649" height="50.877" x="14.27" y="14.654" fill="url(#paint7_linear_476_3426)"/></g><mask id="mask8_476_3426" width="10" height="12" x="24" y="38" maskUnits="userSpaceOnUse" style="mask-type:alpha"><path fill="#fff" d="M24.4766 38.7227V49.6433L33.9547 44.1752L24.4766 38.7227Z" opacity=".3"/></mask><g mask="url(#mask8_476_3426)"><rect width="51.649" height="50.877" x="14.27" y="14.656" fill="url(#paint8_linear_476_3426)"/></g><mask id="mask9_476_3426" width="11" height="12" x="30" y="46" maskUnits="userSpaceOnUse" style="mask-type:alpha"><path fill="#fff" d="M30.7236 46.9648V57.8854L40.1856 52.4174L30.7236 46.9648Z" opacity=".9"/></mask><g mask="url(#mask9_476_3426)"><rect width="51.649" height="50.877" x="14.27" y="14.656" fill="url(#paint9_linear_476_3426)"/></g><mask id="mask10_476_3426" width="11" height="12" x="43" y="51" maskUnits="userSpaceOnUse" style="mask-type:alpha"><path fill="#fff" d="M43.9683 51.6641V62.583L53.4302 57.115L43.9683 51.6641Z" opacity=".7"/></mask><g mask="url(#mask10_476_3426)"><rect width="51.649" height="50.877" x="14.271" y="14.658" fill="url(#paint10_linear_476_3426)"/></g><mask id="mask11_476_3426" width="10" height="12" x="33" y="26" maskUnits="userSpaceOnUse" style="mask-type:alpha"><path fill="#fff" d="M33.082 26.4219V37.3425L42.5439 31.8899L33.082 26.4219Z" opacity=".9"/></mask><g mask="url(#mask11_476_3426)"><rect width="51.649" height="50.877" x="14.271" y="14.656" fill="url(#paint11_linear_476_3426)"/></g><mask id="mask12_476_3426" width="11" height="12" x="34" y="17" maskUnits="userSpaceOnUse" style="mask-type:alpha"><path fill="#fff" d="M44.045 17.2031V28.1245L34.5669 22.6719L44.045 17.2031Z" opacity=".8"/></mask><g mask="url(#mask12_476_3426)"><rect width="51.649" height="50.877" x="14.271" y="14.656" fill="url(#paint12_linear_476_3426)"/></g><mask id="mask13_476_3426" width="11" height="12" x="23" y="21" maskUnits="userSpaceOnUse" style="mask-type:alpha"><path fill="#fff" d="M33.0831 21.8438V32.7619L23.605 27.2963L33.0831 21.8438Z" opacity=".6"/></mask><g mask="url(#mask13_476_3426)"><rect width="51.649" height="50.877" x="14.27" y="14.656" fill="url(#paint13_linear_476_3426)"/></g><mask id="mask14_476_3426" width="10" height="12" x="33" y="27" maskUnits="userSpaceOnUse" style="mask-type:alpha"><path fill="#fff" d="M42.5582 27.248V38.1686L33.0801 32.7006L42.5582 27.248Z" opacity=".6"/></mask><g mask="url(#mask14_476_3426)"><rect width="51.649" height="50.877" x="14.27" y="14.656" fill="url(#paint14_linear_476_3426)"/></g><mask id="mask15_476_3426" width="11" height="12" x="21" y="31" maskUnits="userSpaceOnUse" style="mask-type:alpha"><path fill="#fff" d="M31.4605 31.8125V42.7331L21.9824 37.2805L31.4605 31.8125Z" opacity=".95"/></mask><g mask="url(#mask15_476_3426)"><rect width="51.649" height="50.877" x="14.27" y="14.654" fill="url(#paint15_linear_476_3426)"/></g><mask id="mask16_476_3426" width="11" height="11" x="34" y="39" maskUnits="userSpaceOnUse" style="mask-type:alpha"><path fill="#fff" d="M44.0439 39.0469V49.9675L34.582 44.5149L44.0439 39.0469Z" opacity=".6"/></mask><g mask="url(#mask16_476_3426)"><rect width="51.649" height="50.877" x="14.271" y="14.656" fill="url(#paint16_linear_476_3426)"/></g><mask id="mask17_476_3426" width="10" height="12" x="15" y="41" maskUnits="userSpaceOnUse" style="mask-type:alpha"><path fill="#fff" d="M24.4773 41.5859V52.5065L15 47.0377L24.4773 41.5859Z" opacity=".55"/></mask><g mask="url(#mask17_476_3426)"><rect width="51.649" height="50.877" x="14.27" y="14.656" fill="url(#paint17_linear_476_3426)"/></g><mask id="mask18_476_3426" width="10" height="12" x="53" y="28" maskUnits="userSpaceOnUse" style="mask-type:alpha"><path fill="#fff" d="M62.9996 28.125V39.0456L53.5215 33.593L62.9996 28.125Z"/></mask><g mask="url(#mask18_476_3426)"><rect width="51.649" height="50.877" x="14.271" y="14.658" fill="url(#paint18_linear_476_3426)"/></g><mask id="mask19_476_3426" width="10" height="12" x="44" y="33" maskUnits="userSpaceOnUse" style="mask-type:alpha"><path fill="#fff" d="M53.5206 33.5898V44.5104L44.0425 39.0424L53.5206 33.5898Z" opacity=".95"/></mask><g mask="url(#mask19_476_3426)"><rect width="51.649" height="50.877" x="14.27" y="14.656" fill="url(#paint19_linear_476_3426)"/></g><mask id="mask20_476_3426" width="10" height="11" x="53" y="39" maskUnits="userSpaceOnUse" style="mask-type:alpha"><path fill="#fff" d="M62.9981 39.0469V49.9675L53.52 44.5149L62.9981 39.0469Z" opacity=".9"/></mask><g mask="url(#mask20_476_3426)"><rect width="51.649" height="50.877" x="14.27" y="14.66" fill="url(#paint20_linear_476_3426)"/></g><mask id="mask21_476_3426" width="10" height="12" x="44" y="44" maskUnits="userSpaceOnUse" style="mask-type:alpha"><path fill="#fff" d="M53.5206 44.5117V55.4323L44.0425 49.9643L53.5206 44.5117Z" opacity=".7"/></mask><g mask="url(#mask21_476_3426)"><rect width="51.649" height="50.877" x="14.27" y="14.658" fill="url(#paint21_linear_476_3426)"/></g><mask id="mask22_476_3426" width="10" height="11" x="32" y="49" maskUnits="userSpaceOnUse" style="mask-type:alpha"><path fill="#fff" d="M41.9464 49.0625V59.9831L32.4683 54.5305L41.9464 49.0625Z" opacity=".4"/></mask><g mask="url(#mask22_476_3426)"><rect width="51.649" height="50.877" x="14.269" y="14.658" fill="url(#paint22_linear_476_3426)"/></g><mask id="mask23_476_3426" width="10" height="12" x="44" y="22" maskUnits="userSpaceOnUse" style="mask-type:alpha"><path fill="#fff" d="M53.5206 22.668V33.5894L44.0425 28.1214L53.5206 22.668Z"/></mask><g mask="url(#mask23_476_3426)"><rect width="51.649" height="50.877" x="14.27" y="14.654" fill="url(#paint23_linear_476_3426)"/></g><defs><linearGradient id="paint0_linear_476_3426" x1="21.006" x2="81.672" y1="43.777" y2="54.135" gradientUnits="userSpaceOnUse"><stop offset=".07" stop-color="#77FE9E"/><stop offset=".369" stop-color="#72A7FF"/><stop offset="1" stop-color="#EC02D5"/></linearGradient><linearGradient id="paint1_linear_476_3426" x1="21.006" x2="81.672" y1="43.777" y2="54.135" gradientUnits="userSpaceOnUse"><stop offset=".07" stop-color="#77FE9E"/><stop offset=".369" stop-color="#72A7FF"/><stop offset="1" stop-color="#EC02D5"/></linearGradient><linearGradient id="paint2_linear_476_3426" x1="21.006" x2="81.672" y1="43.779" y2="54.137" gradientUnits="userSpaceOnUse"><stop offset=".07" stop-color="#77FE9E"/><stop offset=".369" stop-color="#72A7FF"/><stop offset="1" stop-color="#EC02D5"/></linearGradient><linearGradient id="paint3_linear_476_3426" x1="21.006" x2="81.672" y1="43.777" y2="54.135" gradientUnits="userSpaceOnUse"><stop offset=".07" stop-color="#77FE9E"/><stop offset=".369" stop-color="#72A7FF"/><stop offset="1" stop-color="#EC02D5"/></linearGradient><linearGradient id="paint4_linear_476_3426" x1="21.006" x2="81.672" y1="43.777" y2="54.135" gradientUnits="userSpaceOnUse"><stop offset=".07" stop-color="#77FE9E"/><stop offset=".369" stop-color="#72A7FF"/><stop offset="1" stop-color="#EC02D5"/></linearGradient><linearGradient id="paint5_linear_476_3426" x1="21.006" x2="81.672" y1="43.775" y2="54.133" gradientUnits="userSpaceOnUse"><stop offset=".07" stop-color="#77FE9E"/><stop offset=".369" stop-color="#72A7FF"/><stop offset="1" stop-color="#EC02D5"/></linearGradient><linearGradient id="paint6_linear_476_3426" x1="21.006" x2="81.672" y1="43.777" y2="54.135" gradientUnits="userSpaceOnUse"><stop offset=".07" stop-color="#77FE9E"/><stop offset=".369" stop-color="#72A7FF"/><stop offset="1" stop-color="#EC02D5"/></linearGradient><linearGradient id="paint7_linear_476_3426" x1="21.006" x2="81.672" y1="43.775" y2="54.133" gradientUnits="userSpaceOnUse"><stop offset=".07" stop-color="#77FE9E"/><stop offset=".369" stop-color="#72A7FF"/><stop offset="1" stop-color="#EC02D5"/></linearGradient><linearGradient id="paint8_linear_476_3426" x1="21.006" x2="81.672" y1="43.777" y2="54.135" gradientUnits="userSpaceOnUse"><stop offset=".07" stop-color="#77FE9E"/><stop offset=".369" stop-color="#72A7FF"/><stop offset="1" stop-color="#EC02D5"/></linearGradient><linearGradient id="paint9_linear_476_3426" x1="21.006" x2="81.672" y1="43.777" y2="54.135" gradientUnits="userSpaceOnUse"><stop offset=".07" stop-color="#77FE9E"/><stop offset=".369" stop-color="#72A7FF"/><stop offset="1" stop-color="#EC02D5"/></linearGradient><linearGradient id="paint10_linear_476_3426" x1="21.007" x2="81.673" y1="43.779" y2="54.137" gradientUnits="userSpaceOnUse"><stop offset=".07" stop-color="#77FE9E"/><stop offset=".369" stop-color="#72A7FF"/><stop offset="1" stop-color="#EC02D5"/></linearGradient><linearGradient id="paint11_linear_476_3426" x1="21.007" x2="81.673" y1="43.777" y2="54.135" gradientUnits="userSpaceOnUse"><stop offset=".07" stop-color="#77FE9E"/><stop offset=".369" stop-color="#72A7FF"/><stop offset="1" stop-color="#EC02D5"/></linearGradient><linearGradient id="paint12_linear_476_3426" x1="21.007" x2="81.673" y1="43.777" y2="54.135" gradientUnits="userSpaceOnUse"><stop offset=".07" stop-color="#77FE9E"/><stop offset=".369" stop-color="#72A7FF"/><stop offset="1" stop-color="#EC02D5"/></linearGradient><linearGradient id="paint13_linear_476_3426" x1="21.006" x2="81.672" y1="43.777" y2="54.135" gradientUnits="userSpaceOnUse"><stop offset=".07" stop-color="#77FE9E"/><stop offset=".369" stop-color="#72A7FF"/><stop offset="1" stop-color="#EC02D5"/></linearGradient><linearGradient id="paint14_linear_476_3426" x1="21.006" x2="81.672" y1="43.777" y2="54.135" gradientUnits="userSpaceOnUse"><stop offset=".07" stop-color="#77FE9E"/><stop offset=".369" stop-color="#72A7FF"/><stop offset="1" stop-color="#EC02D5"/></linearGradient><linearGradient id="paint15_linear_476_3426" x1="21.006" x2="81.672" y1="43.775" y2="54.133" gradientUnits="userSpaceOnUse"><stop offset=".07" stop-color="#77FE9E"/><stop offset=".369" stop-color="#72A7FF"/><stop offset="1" stop-color="#EC02D5"/></linearGradient><linearGradient id="paint16_linear_476_3426" x1="21.007" x2="81.673" y1="43.777" y2="54.135" gradientUnits="userSpaceOnUse"><stop offset=".07" stop-color="#77FE9E"/><stop offset=".369" stop-color="#72A7FF"/><stop offset="1" stop-color="#EC02D5"/></linearGradient><linearGradient id="paint17_linear_476_3426" x1="21.006" x2="81.672" y1="43.777" y2="54.135" gradientUnits="userSpaceOnUse"><stop offset=".07" stop-color="#77FE9E"/><stop offset=".369" stop-color="#72A7FF"/><stop offset="1" stop-color="#EC02D5"/></linearGradient><linearGradient id="paint18_linear_476_3426" x1="21.008" x2="81.674" y1="43.779" y2="54.137" gradientUnits="userSpaceOnUse"><stop offset=".07" stop-color="#77FE9E"/><stop offset=".369" stop-color="#72A7FF"/><stop offset="1" stop-color="#EC02D5"/></linearGradient><linearGradient id="paint19_linear_476_3426" x1="21.006" x2="81.672" y1="43.777" y2="54.135" gradientUnits="userSpaceOnUse"><stop offset=".07" stop-color="#77FE9E"/><stop offset=".369" stop-color="#72A7FF"/><stop offset="1" stop-color="#EC02D5"/></linearGradient><linearGradient id="paint20_linear_476_3426" x1="21.006" x2="81.672" y1="43.781" y2="54.139" gradientUnits="userSpaceOnUse"><stop offset=".07" stop-color="#77FE9E"/><stop offset=".369" stop-color="#72A7FF"/><stop offset="1" stop-color="#EC02D5"/></linearGradient><linearGradient id="paint21_linear_476_3426" x1="21.006" x2="81.672" y1="43.779" y2="54.137" gradientUnits="userSpaceOnUse"><stop offset=".07" stop-color="#77FE9E"/><stop offset=".369" stop-color="#72A7FF"/><stop offset="1" stop-color="#EC02D5"/></linearGradient><linearGradient id="paint22_linear_476_3426" x1="21.006" x2="81.672" y1="43.779" y2="54.137" gradientUnits="userSpaceOnUse"><stop offset=".07" stop-color="#77FE9E"/><stop offset=".369" stop-color="#72A7FF"/><stop offset="1" stop-color="#EC02D5"/></linearGradient><linearGradient id="paint23_linear_476_3426" x1="21.006" x2="81.672" y1="43.775" y2="54.133" gradientUnits="userSpaceOnUse"><stop offset=".07" stop-color="#77FE9E"/><stop offset=".369" stop-color="#72A7FF"/><stop offset="1" stop-color="#EC02D5"/></linearGradient></defs></svg>